# xmcd CD database file
#
# Track frame offsets:
#	150
#	21045
#	43860
#	67432
#	83637
#	95282
#	111122
#	128000
#	140665
#	158345
#	182150
#	197357
#	215487
#	234107
#
# Disc length: 3421 seconds
#
# Revision: 0
# Processed by: cddbd v1.4PL0 Copyright (c) Steve Scherf et al.
# Submitted via: CDex 1.50beta10
#
DISCID=b60d5b0e
DTITLE=Jordklotets Presidenter - Jordklotets Presidenter
DYEAR=1994
DGENRE=Jazz
TTITLE0=Vals i rosa gröt
TTITLE1=Sjömansvals
TTITLE2=Amiral Krokoxe
TTITLE3=Sju slag på stocktrumman
TTITLE4=Kransjön, en polka i hiss
TTITLE5=Morgonis
TTITLE6=Ljudlös
TTITLE7=Johans racer
TTITLE8=Västbanken
TTITLE9=Oranienbaum
TTITLE10=Svit del 1
TTITLE11=Den rånade madrassen
TTITLE12=Svangens fyr
TTITLE13=Aviatorn
EXTD=YEAR: 1994
EXTT0=
EXTT1=
EXTT2=
EXTT3=
EXTT4=
EXTT5=
EXTT6=
EXTT7=
EXTT8=
EXTT9=
EXTT10=
EXTT11=
EXTT12=
EXTT13=
PLAYORDER=
